<?xml version="1.0" standalone="no"?>
<!DOCTYPE svg PUBLIC "-//W3C//DTD SVG 20010904//EN"
 "http://www.w3.org/TR/2001/REC-SVG-20010904/DTD/svg10.dtd">
<svg version="1.0" xmlns="http://www.w3.org/2000/svg"
 width="354.000000pt" height="354.000000pt" viewBox="0 0 354.000000 354.000000"
 preserveAspectRatio="xMidYMid meet">
<metadata>
Created by potrace 1.14, written by Peter Selinger 2001-2017
</metadata>
<g transform="translate(0.000000,354.000000) scale(0.100000,-0.100000)"
fill="#000000" stroke="none">
<path d="M1500 2278 c-91 -95 -185 -191 -209 -214 l-44 -41 -100 68 -99 68
-58 -57 c-74 -74 -237 -229 -275 -264 l-30 -27 -30 27 c-17 15 -55 48 -86 74
l-57 47 -198 -198 c-110 -109 -214 -214 -233 -234 -53 -56 -28 -62 40 -9 34
26 75 57 92 70 18 12 40 29 50 38 47 39 150 104 166 104 23 0 48 -27 56 -63 9
-35 47 -61 75 -52 12 4 46 41 77 83 55 75 312 334 324 327 3 -2 7 -31 8 -64 4
-112 16 -145 57 -155 17 -5 35 -1 52 10 27 18 187 178 435 436 78 81 145 148
148 148 7 0 7 2 48 -198 23 -111 37 -154 61 -190 39 -60 83 -155 116 -248 36
-101 78 -121 104 -51 19 52 26 62 46 64 14 2 35 -21 79 -87 61 -92 82 -108
128 -96 12 3 31 20 42 38 33 52 64 53 162 6 l85 -40 20 20 20 20 -43 48 c-24
27 -116 119 -204 206 -135 133 -156 158 -140 164 56 20 172 68 183 77 7 5 14
8 16 6 7 -8 56 -186 61 -224 5 -35 19 -52 105 -135 114 -110 152 -136 168
-117 14 16 -11 67 -87 181 -70 106 -74 152 -17 198 51 40 115 87 134 97 25 13
20 28 71 -198 22 -96 46 -180 53 -188 8 -7 27 -16 43 -19 69 -12 129 -68 150
-138 19 -66 25 -75 62 -85 23 -7 41 -4 73 10 53 24 69 24 161 -1 167 -44 161
-23 -48 175 -287 270 -345 325 -434 412 -47 45 -89 83 -95 83 -5 0 -40 -21
-79 -46 -54 -35 -73 -43 -85 -35 -8 5 -45 29 -82 51 l-67 42 -113 -47 c-62
-25 -137 -55 -167 -66 l-54 -20 -36 34 c-20 19 -77 68 -127 108 -50 41 -136
111 -192 157 -55 45 -105 82 -109 82 -5 0 -83 -77 -173 -172z m268 65 c30 -27
78 -66 106 -87 28 -21 53 -42 56 -45 3 -4 46 -40 95 -80 89 -72 518 -491 511
-498 -2 -3 -30 9 -62 25 -117 59 -175 57 -212 -7 -35 -62 -59 -49 -140 76 -28
45 -56 76 -70 79 -33 9 -66 -18 -81 -65 -6 -23 -16 -41 -21 -41 -8 0 -36 41
-32 47 2 3 0 10 -29 93 -13 36 -35 85 -50 110 -15 25 -39 64 -53 86 -14 23
-28 56 -31 75 -8 44 -45 227 -52 257 -8 32 3 28 65 -25z m783 -224 l58 -42
-23 -18 c-26 -21 -42 -67 -38 -112 2 -28 28 -87 42 -97 12 -8 90 -132 90 -143
0 -10 -179 148 -195 173 -5 8 -11 24 -12 35 -1 12 -10 57 -21 100 -35 143 -35
134 -10 145 30 11 38 8 109 -41z m598 -309 c161 -151 288 -276 284 -277 -5 -2
-35 6 -68 17 -74 26 -129 26 -171 0 -21 -14 -41 -19 -57 -15 -25 7 -34 22 -57
97 -14 47 -89 114 -144 130 -23 6 -44 14 -48 18 -4 3 -17 48 -28 100 -11 52
-27 126 -35 165 -19 91 -19 92 8 64 13 -13 155 -148 316 -299z m-2009 252 l90
-58 -85 -87 c-121 -124 -138 -119 -149 48 -5 87 -5 91 22 122 15 18 28 33 30
33 1 0 42 -26 92 -58z m-480 -282 c-23 -44 -102 -140 -115 -140 -9 0 -23 17
-31 38 -40 96 -86 105 -177 36 -34 -26 -69 -52 -77 -58 -26 -19 92 106 175
185 l79 76 77 -61 c57 -45 74 -65 69 -76z"/>
<path d="M1286 1581 c-15 -16 -26 -37 -24 -47 3 -16 10 -12 46 20 23 21 42 42
42 47 0 19 -38 7 -64 -20z"/>
<path d="M473 1513 c-18 -4 -24 -18 -42 -116 -28 -155 -29 -162 -11 -162 10 0
18 18 25 53 5 29 13 53 18 53 52 -4 69 2 102 36 22 23 35 46 35 63 0 27 -32
70 -53 70 -7 0 -21 2 -32 4 -11 2 -30 2 -42 -1z m68 -43 c43 -24 5 -90 -52
-90 -23 0 -30 4 -26 14 3 8 9 31 13 50 7 38 26 46 65 26z"/>
<path d="M982 1507 c-6 -7 -15 -31 -20 -53 -8 -39 -8 -39 -51 -36 -36 3 -48
-1 -72 -24 -35 -34 -53 -91 -40 -127 15 -38 44 -49 106 -42 l53 7 7 61 c4 33
16 95 26 136 17 74 14 106 -9 78z m-61 -127 c22 -12 23 -21 8 -73 -12 -43 -47
-64 -80 -47 -29 16 -26 74 6 105 27 28 37 30 66 15z"/>
<path d="M2430 1505 c-7 -9 -10 -18 -7 -21 3 -3 1 -20 -4 -37 -5 -18 -12 -48
-15 -67 -3 -19 -10 -53 -15 -75 -4 -22 -9 -50 -9 -62 0 -33 28 -29 36 5 7 26
31 62 43 62 4 0 17 -20 31 -45 25 -46 50 -59 50 -27 0 9 -10 36 -22 58 l-22
41 32 34 c32 34 41 59 22 59 -6 0 -34 -21 -62 -47 l-51 -48 7 40 c16 93 18
133 8 139 -5 3 -15 -1 -22 -9z"/>
<path d="M1629 1494 c-10 -13 -10 -17 1 -24 14 -9 40 4 40 20 0 16 -29 18 -41
4z"/>
<path d="M2331 1497 c-6 -8 -6 -18 -1 -27 7 -11 11 -11 24 -1 9 8 16 17 16 21
0 14 -28 19 -39 7z"/>
<path d="M2641 1500 c-19 -11 -6 -41 14 -34 16 6 20 29 7 38 -4 2 -14 1 -21
-4z"/>
<path d="M1245 1485 c-43 -19 -75 -52 -75 -80 0 -29 34 -55 71 -55 15 0 37 -8
49 -18 20 -16 21 -21 9 -39 -27 -44 -103 -57 -134 -23 -20 22 -35 18 -35 -10
0 -49 106 -59 171 -16 66 44 55 129 -19 141 -60 11 -72 16 -72 30 0 24 46 47
87 44 47 -4 74 9 49 23 -27 15 -70 17 -101 3z"/>
<path d="M1980 1465 c0 -8 9 -15 20 -15 11 0 20 7 20 15 0 8 -9 15 -20 15 -11
0 -20 -7 -20 -15z"/>
<path d="M1405 1393 c-3 -21 -10 -57 -16 -80 -13 -61 -12 -93 6 -93 9 0 16 14
20 38 9 58 49 126 77 130 l24 3 -10 -76 c-9 -75 -2 -106 22 -91 15 9 25 175
11 192 -15 19 -44 18 -74 -2 -23 -15 -25 -15 -25 0 0 33 -29 16 -35 -21z"/>
<path d="M1911 1413 c-14 -10 -14 -12 3 -19 10 -4 31 -8 45 -10 14 -1 30 -2
34 -3 13 -2 -9 -33 -63 -91 -28 -30 -52 -59 -53 -63 -2 -8 89 -12 143 -8 19 2
10 31 -10 32 -39 3 -43 4 -47 14 -2 6 22 38 52 73 30 35 55 67 55 73 0 5 -10
9 -22 10 -13 0 -45 1 -72 2 -27 1 -56 -3 -65 -10z"/>
<path d="M2110 1420 c0 -5 -1 -13 -2 -17 -31 -134 -35 -183 -13 -183 9 0 16
14 20 38 9 56 49 126 76 130 21 4 21 1 15 -40 -5 -23 -8 -61 -9 -83 -1 -33 3
-40 19 -40 17 0 20 10 26 89 8 96 2 116 -36 116 -12 0 -32 -7 -44 -16 -20 -14
-22 -14 -22 0 0 9 -7 16 -15 16 -8 0 -15 -4 -15 -10z"/>
<path d="M2905 1408 c-3 -13 -7 -36 -9 -53 -19 -137 -19 -135 -4 -135 16 0 28
28 28 67 0 22 54 93 70 93 8 0 4 -120 -5 -147 -5 -16 14 -28 26 -16 9 9 17 56
18 109 1 22 8 34 26 44 14 7 28 11 31 7 3 -3 6 -40 5 -82 -1 -67 1 -76 16 -73
13 2 17 18 20 89 5 102 -7 121 -60 101 -21 -8 -35 -8 -41 -2 -15 15 -35 12
-65 -9 -27 -20 -27 -20 -27 1 1 29 -22 34 -29 6z"/>
<path d="M652 1404 c-50 -35 -71 -127 -36 -165 50 -55 146 15 146 108 0 63
-58 94 -110 57z m68 -66 c0 -47 -22 -78 -55 -78 -39 0 -45 38 -15 88 14 22 27
32 45 32 23 0 25 -4 25 -42z"/>
<path d="M1614 1408 c-13 -21 -33 -162 -24 -172 17 -17 28 6 40 84 7 44 12 83
12 87 -1 14 -20 14 -28 1z"/>
<path d="M1720 1392 c-15 -16 -34 -47 -41 -70 -10 -35 -10 -45 5 -66 19 -30
53 -41 100 -32 35 7 74 40 58 50 -6 3 -23 -1 -38 -9 -36 -19 -55 -19 -79 -1
-18 13 -15 16 43 45 72 36 88 58 66 89 -23 33 -78 30 -114 -6z m87 -18 c2 -6
-2 -14 -9 -17 -7 -3 -30 -12 -51 -21 l-38 -17 15 30 c20 38 73 54 83 25z"/>
<path d="M2312 1403 c-6 -10 -13 -43 -17 -73 -4 -30 -9 -63 -11 -72 -3 -21 14
-34 27 -21 5 5 12 29 15 54 3 24 9 61 14 81 4 20 5 39 2 43 -10 10 -21 5 -30
-12z"/>
<path d="M2615 1408 c-11 -34 -33 -164 -29 -170 5 -8 34 -11 34 -4 0 2 5 28
10 57 22 113 23 129 6 129 -9 0 -18 -6 -21 -12z"/>
<path d="M2732 1404 c-53 -37 -72 -133 -33 -166 28 -22 82 -23 121 -3 33 17
43 53 13 40 -62 -25 -75 -27 -100 -16 -32 15 -19 32 37 51 48 16 80 44 80 70
0 38 -76 54 -118 24z m77 -23 c11 -7 1 -16 -37 -35 -28 -14 -54 -26 -57 -26
-3 0 1 13 10 29 18 36 56 50 84 32z"/>
</g>
</svg>
