<svg id="wave" width="100%" height="100%" viewBox="0 0 1440 100" version="1.1" xmlns="http://www.w3.org/2000/svg">
  <defs>
    <linearGradient id="sw-gradient-0" x1="0" x2="0" y1="1" y2="0">
      <stop stop-color="rgba(243, 210, 193, 1)" offset="0%"></stop>
      <stop stop-color="rgba(243, 210, 193, 1)" offset="100%"></stop>
    </linearGradient>
  </defs>
  <path fill="url(#sw-gradient-0)"
    d="M0,60L48,56.7C96,53,192,47,288,46.7C384,47,480,53,576,61.7C672,70,768,80,864,71.7C960,63,1056,37,1152,31.7C1248,27,1344,43,1440,50C1536,57,1632,53,1728,46.7C1824,40,1920,30,2016,35C2112,40,2208,60,2304,60C2400,60,2496,40,2592,31.7C2688,23,2784,27,2880,35C2976,43,3072,57,3168,58.3C3264,60,3360,50,3456,40C3552,30,3648,20,3744,16.7C3840,13,3936,17,4032,23.3C4128,30,4224,40,4320,48.3C4416,57,4512,63,4608,61.7C4704,60,4800,50,4896,50C4992,50,5088,60,5184,63.3C5280,67,5376,63,5472,65C5568,67,5664,73,5760,63.3C5856,53,5952,27,6048,16.7C6144,7,6240,13,6336,23.3C6432,33,6528,47,6624,50C6720,53,6816,47,6864,43.3L6912,40L6912,100L6864,100C6816,100,6720,100,6624,100C6528,100,6432,100,6336,100C6240,100,6144,100,6048,100C5952,100,5856,100,5760,100C5664,100,5568,100,5472,100C5376,100,5280,100,5184,100C5088,100,4992,100,4896,100C4800,100,4704,100,4608,100C4512,100,4416,100,4320,100C4224,100,4128,100,4032,100C3936,100,3840,100,3744,100C3648,100,3552,100,3456,100C3360,100,3264,100,3168,100C3072,100,2976,100,2880,100C2784,100,2688,100,2592,100C2496,100,2400,100,2304,100C2208,100,2112,100,2016,100C1920,100,1824,100,1728,100C1632,100,1536,100,1440,100C1344,100,1248,100,1152,100C1056,100,960,100,864,100C768,100,672,100,576,100C480,100,384,100,288,100C192,100,96,100,48,100L0,100Z">
  </path>
</svg>